<svg xmlns="http://www.w3.org/2000/svg" width="29.205" height="23.364" viewBox="0 0 29.205 23.364">
  <g id="Iconly_Broken_Show" data-name="Iconly/Broken/Show" transform="translate(-2 -4)">
    <g id="Show" transform="translate(2 4)">
      <path id="Show-2" data-name="Show" d="M14.6,23.364h0C8.561,23.362,3.136,19.151.087,12.1a1.053,1.053,0,0,1,0-.837C3.136,4.215,8.561,0,14.6,0h.007c6.04,0,11.465,4.215,14.513,11.264a1.053,1.053,0,0,1,0,.837,24.9,24.9,0,0,1-1.2,2.416,1.071,1.071,0,0,1-1.456.4,1.06,1.06,0,0,1-.4-1.447c.323-.57.631-1.174.912-1.793C24.242,5.689,19.645,2.126,14.6,2.125S4.963,5.689,2.236,11.682C4.963,17.675,9.56,21.239,14.6,21.239a11.84,11.84,0,0,0,8.181-3.51,1.074,1.074,0,0,1,1.509.035,1.054,1.054,0,0,1-.034,1.5,13.938,13.938,0,0,1-9.653,4.1Zm-2.924-6.829a1.055,1.055,0,0,1-.365-1.456,1.069,1.069,0,0,1,1.465-.361,3.533,3.533,0,1,0-1.731-3.037,1.068,1.068,0,0,1-2.136,0,5.683,5.683,0,1,1,2.766,4.855Z" fill="#006891"/>
    </g>
  </g>
</svg>
